<svg width="1115" height="399" viewBox="0 0 1115 399" fill="none" xmlns="http://www.w3.org/2000/svg">
<path d="M37.3828 340H13.3594V242.344H34.2578L35.1367 260.117C38.5221 253.867 43.0794 249.017 48.8086 245.566C54.6029 242.116 61.2435 240.391 68.7305 240.391C70.6836 240.391 72.6693 240.521 74.6875 240.781C76.7708 241.042 78.8216 241.432 80.8398 241.953L77.9102 263.633C73.8737 262.461 69.9674 261.875 66.1914 261.875C60.4622 261.875 55.4167 263.21 51.0547 265.879C46.7578 268.548 43.4049 272.259 40.9961 277.012C38.5872 281.699 37.3828 287.168 37.3828 293.418V340ZM183.574 328.672C171.4 337.526 158.086 341.953 143.633 341.953C133.151 341.953 123.743 339.674 115.41 335.117C107.077 330.56 100.469 324.342 95.5859 316.465C90.7682 308.587 88.3594 299.668 88.3594 289.707C88.3594 280.267 90.5404 271.836 94.9023 264.414C99.3294 256.992 105.352 251.133 112.969 246.836C120.651 242.539 129.31 240.391 138.945 240.391C148.971 240.391 157.76 242.767 165.312 247.52C172.93 252.207 178.854 258.75 183.086 267.148C187.318 275.482 189.434 285.182 189.434 296.25V299.375H114.238C115.41 303.802 117.461 307.708 120.391 311.094C123.385 314.479 127.096 317.116 131.523 319.004C135.951 320.892 140.931 321.836 146.465 321.836C156.882 321.836 166.517 318.451 175.371 311.68L183.574 328.672ZM113.262 285.312H167.168C166.647 280.43 165.15 276.165 162.676 272.52C160.267 268.874 157.109 266.042 153.203 264.023C149.362 261.94 145.033 260.898 140.215 260.898C135.332 260.898 130.97 261.94 127.129 264.023C123.288 266.107 120.163 269.004 117.754 272.715C115.345 276.361 113.848 280.56 113.262 285.312ZM221.074 216.465C217.689 216.465 214.824 215.293 212.48 212.949C210.202 210.54 209.062 207.643 209.062 204.258C209.062 200.938 210.202 198.105 212.48 195.762C214.824 193.353 217.689 192.148 221.074 192.148C224.525 192.148 227.422 193.353 229.766 195.762C232.109 198.105 233.281 200.938 233.281 204.258C233.281 207.643 232.109 210.54 229.766 212.949C227.422 215.293 224.525 216.465 221.074 216.465ZM233.086 340H209.062V242.344H233.086V340ZM416.973 340H392.949V289.902C392.949 281.048 391.094 274.18 387.383 269.297C383.737 264.349 378.561 261.875 371.855 261.875C365.085 261.875 359.779 264.349 355.938 269.297C352.161 274.245 350.273 281.113 350.273 289.902V340H326.25V289.902C326.25 281.048 324.395 274.18 320.684 269.297C316.973 264.349 311.797 261.875 305.156 261.875C298.32 261.875 292.982 264.349 289.141 269.297C285.365 274.245 283.477 281.113 283.477 289.902V340H259.453V242.344H278.691L279.57 258.945C282.891 252.891 287.285 248.301 292.754 245.176C298.288 241.986 304.798 240.391 312.285 240.391C320.033 240.391 326.706 242.083 332.305 245.469C337.969 248.789 342.298 253.574 345.293 259.824C348.548 253.444 353.008 248.626 358.672 245.371C364.336 242.051 371.009 240.391 378.691 240.391C390.736 240.391 400.111 244.232 406.816 251.914C413.587 259.531 416.973 270.143 416.973 283.75V340ZM525.469 340H504.57L503.203 327.988C499.622 332.415 495.163 335.866 489.824 338.34C484.486 340.749 478.561 341.953 472.051 341.953C465.15 341.953 458.997 340.618 453.594 337.949C448.19 335.215 443.926 331.504 440.801 326.816C437.741 322.129 436.211 316.79 436.211 310.801C436.211 304.486 437.871 298.952 441.191 294.199C444.577 289.382 449.167 285.605 454.961 282.871C460.82 280.137 467.493 278.77 474.98 278.77C479.538 278.77 484.095 279.29 488.652 280.332C493.275 281.374 497.539 282.839 501.445 284.727V281.602C501.445 277.305 500.273 273.594 497.93 270.469C495.586 267.344 492.428 264.935 488.457 263.242C484.486 261.484 480.026 260.605 475.078 260.605C470.586 260.605 466.094 261.387 461.602 262.949C457.109 264.447 452.91 266.693 449.004 269.688L442.168 250.84C448.418 247.389 454.798 244.785 461.309 243.027C467.884 241.27 474.297 240.391 480.547 240.391C489.727 240.391 497.669 242.214 504.375 245.859C511.081 249.44 516.257 254.583 519.902 261.289C523.613 267.93 525.469 275.775 525.469 284.824V340ZM477.031 322.617C481.263 322.617 485.169 321.738 488.75 319.98C492.396 318.223 495.358 315.781 497.637 312.656C499.98 309.466 501.217 305.82 501.348 301.719V300.645C498.288 298.431 494.837 296.738 490.996 295.566C487.155 294.329 483.281 293.711 479.375 293.711C473.385 293.711 468.47 295.078 464.629 297.812C460.788 300.482 458.867 303.997 458.867 308.359C458.867 311.029 459.648 313.47 461.211 315.684C462.773 317.832 464.922 319.525 467.656 320.762C470.456 321.999 473.581 322.617 477.031 322.617ZM590.02 340.781C580.97 340.781 572.897 338.6 565.801 334.238C558.704 329.876 553.105 323.919 549.004 316.367C544.902 308.75 542.852 300.156 542.852 290.586C542.852 280.951 544.902 272.357 549.004 264.805C553.105 257.253 558.704 251.296 565.801 246.934C572.897 242.572 580.97 240.391 590.02 240.391C597.116 240.391 603.659 241.758 609.648 244.492C615.638 247.227 620.716 251.035 624.883 255.918L626.055 242.344H647.148V337.363C647.148 348.171 644.837 357.578 640.215 365.586C635.658 373.594 629.212 379.779 620.879 384.141C612.546 388.568 602.682 390.781 591.289 390.781C575.469 390.781 561.309 385.736 548.809 375.645L558.672 356.016C567.396 364.805 577.747 369.199 589.727 369.199C596.497 369.199 602.357 367.832 607.305 365.098C612.318 362.428 616.191 358.62 618.926 353.672C621.725 348.789 623.125 343.06 623.125 336.484V327.109C618.958 331.406 614.043 334.759 608.379 337.168C602.715 339.577 596.595 340.781 590.02 340.781ZM595.293 319.395C600.436 319.395 605.091 318.255 609.258 315.977C613.49 313.633 616.842 310.443 619.316 306.406C621.855 302.37 623.125 297.78 623.125 292.637V288.34C623.125 283.197 621.855 278.639 619.316 274.668C616.842 270.697 613.49 267.572 609.258 265.293C605.026 262.949 600.371 261.777 595.293 261.777C589.954 261.777 585.169 263.047 580.938 265.586C576.706 268.06 573.353 271.478 570.879 275.84C568.47 280.202 567.266 285.117 567.266 290.586C567.266 296.055 568.47 300.97 570.879 305.332C573.353 309.694 576.706 313.145 580.938 315.684C585.169 318.158 589.954 319.395 595.293 319.395ZM684.355 216.465C680.97 216.465 678.105 215.293 675.762 212.949C673.483 210.54 672.344 207.643 672.344 204.258C672.344 200.938 673.483 198.105 675.762 195.762C678.105 193.353 680.97 192.148 684.355 192.148C687.806 192.148 690.703 193.353 693.047 195.762C695.391 198.105 696.562 200.938 696.562 204.258C696.562 207.643 695.391 210.54 693.047 212.949C690.703 215.293 687.806 216.465 684.355 216.465ZM696.367 340H672.344V242.344H696.367V340ZM818.145 340H794.121V287.363C794.121 279.486 792.135 273.301 788.164 268.809C784.258 264.316 778.822 262.07 771.855 262.07C766.973 262.07 762.643 263.21 758.867 265.488C755.091 267.702 752.129 270.892 749.98 275.059C747.832 279.225 746.758 284.076 746.758 289.609V340H722.734V242.344H742.559L743.34 258.066C746.855 252.337 751.641 247.975 757.695 244.98C763.75 241.921 770.651 240.391 778.398 240.391C790.703 240.391 800.404 244.134 807.5 251.621C814.596 259.108 818.145 269.362 818.145 282.383V340ZM930.84 328.672C918.665 337.526 905.352 341.953 890.898 341.953C880.417 341.953 871.009 339.674 862.676 335.117C854.342 330.56 847.734 324.342 842.852 316.465C838.034 308.587 835.625 299.668 835.625 289.707C835.625 280.267 837.806 271.836 842.168 264.414C846.595 256.992 852.617 251.133 860.234 246.836C867.917 242.539 876.576 240.391 886.211 240.391C896.237 240.391 905.026 242.767 912.578 247.52C920.195 252.207 926.12 258.75 930.352 267.148C934.583 275.482 936.699 285.182 936.699 296.25V299.375H861.504C862.676 303.802 864.727 307.708 867.656 311.094C870.651 314.479 874.362 317.116 878.789 319.004C883.216 320.892 888.197 321.836 893.73 321.836C904.147 321.836 913.783 318.451 922.637 311.68L930.84 328.672ZM860.527 285.312H914.434C913.913 280.43 912.415 276.165 909.941 272.52C907.533 268.874 904.375 266.042 900.469 264.023C896.628 261.94 892.298 260.898 887.48 260.898C882.598 260.898 878.236 261.94 874.395 264.023C870.553 266.107 867.428 269.004 865.02 272.715C862.611 276.361 861.113 280.56 860.527 285.312ZM1054.96 340H1033.77L1032.5 326.328C1028.27 331.211 1023.12 335.052 1017.07 337.852C1011.02 340.586 1004.41 341.953 997.246 341.953C988.132 341.953 979.961 339.74 972.734 335.312C965.508 330.885 959.811 324.863 955.645 317.246C951.543 309.564 949.492 300.872 949.492 291.172C949.492 281.471 951.543 272.812 955.645 265.195C959.811 257.513 965.508 251.458 972.734 247.031C979.961 242.604 988.132 240.391 997.246 240.391C1004.02 240.391 1010.27 241.595 1016 244.004C1021.73 246.413 1026.71 249.798 1030.94 254.16V193.516H1054.96V340ZM1002.62 320.371C1007.83 320.371 1012.58 319.199 1016.88 316.855C1021.17 314.447 1024.59 311.159 1027.13 306.992C1029.67 302.826 1030.94 298.073 1030.94 292.734V289.316C1030.94 284.043 1029.67 279.355 1027.13 275.254C1024.59 271.087 1021.17 267.832 1016.88 265.488C1012.58 263.079 1007.83 261.875 1002.62 261.875C997.148 261.875 992.266 263.177 987.969 265.781C983.672 268.32 980.286 271.803 977.812 276.23C975.339 280.592 974.102 285.54 974.102 291.074C974.102 296.673 975.339 301.686 977.812 306.113C980.286 310.54 983.672 314.023 987.969 316.562C992.266 319.102 997.148 320.371 1002.62 320.371ZM1091.29 341.953C1087.64 341.953 1084.71 340.846 1082.5 338.633C1080.29 336.419 1079.18 333.522 1079.18 329.941C1079.18 326.296 1080.29 323.366 1082.5 321.152C1084.71 318.874 1087.64 317.734 1091.29 317.734C1094.87 317.734 1097.77 318.874 1099.98 321.152C1102.26 323.366 1103.4 326.296 1103.4 329.941C1103.4 333.522 1102.26 336.419 1099.98 338.633C1097.77 340.846 1094.87 341.953 1091.29 341.953Z" fill="url(#paint0_linear_602_426)"/>
<path d="M269.902 143.961C265.15 149.365 259.388 153.564 252.617 156.559C245.846 159.488 238.457 160.953 230.449 160.953C220.553 160.953 211.667 158.74 203.789 154.312C195.977 149.885 189.792 143.863 185.234 136.246C180.742 128.564 178.496 119.872 178.496 110.172C178.496 100.471 180.742 91.8125 185.234 84.1953C189.792 76.513 195.977 70.4583 203.789 66.0312C211.667 61.6042 220.553 59.3906 230.449 59.3906C238.392 59.3906 245.716 60.8555 252.422 63.7852C259.193 66.7148 264.954 70.849 269.707 76.1875L255.645 91.1289C252.715 87.9388 249.167 85.4648 245 83.707C240.898 81.9492 236.536 81.0703 231.914 81.0703C226.315 81.0703 221.335 82.3073 216.973 84.7812C212.676 87.2552 209.29 90.6732 206.816 95.0352C204.408 99.3971 203.203 104.41 203.203 110.074C203.203 115.738 204.408 120.784 206.816 125.211C209.29 129.573 212.676 133.023 216.973 135.562C221.335 138.036 226.315 139.273 231.914 139.273C236.536 139.273 240.931 138.395 245.098 136.637C249.264 134.814 252.78 132.34 255.645 129.215L269.902 143.961ZM312.871 159H288.848V61.3438H309.746L310.625 79.1172C314.01 72.8672 318.568 68.0169 324.297 64.5664C330.091 61.1159 336.732 59.3906 344.219 59.3906C346.172 59.3906 348.158 59.5208 350.176 59.7812C352.259 60.0417 354.31 60.4323 356.328 60.9531L353.398 82.6328C349.362 81.4609 345.456 80.875 341.68 80.875C335.951 80.875 330.905 82.2096 326.543 84.8789C322.246 87.5482 318.893 91.2591 316.484 96.0117C314.076 100.699 312.871 106.168 312.871 112.418V159ZM459.062 147.672C446.888 156.526 433.574 160.953 419.121 160.953C408.639 160.953 399.232 158.674 390.898 154.117C382.565 149.56 375.957 143.342 371.074 135.465C366.257 127.587 363.848 118.668 363.848 108.707C363.848 99.2669 366.029 90.8359 370.391 83.4141C374.818 75.9922 380.84 70.1328 388.457 65.8359C396.139 61.5391 404.798 59.3906 414.434 59.3906C424.46 59.3906 433.249 61.7669 440.801 66.5195C448.418 71.207 454.342 77.75 458.574 86.1484C462.806 94.4818 464.922 104.182 464.922 115.25V118.375H389.727C390.898 122.802 392.949 126.708 395.879 130.094C398.874 133.479 402.585 136.116 407.012 138.004C411.439 139.892 416.419 140.836 421.953 140.836C432.37 140.836 442.005 137.451 450.859 130.68L459.062 147.672ZM388.75 104.312H442.656C442.135 99.4297 440.638 95.1654 438.164 91.5195C435.755 87.8737 432.598 85.0417 428.691 83.0234C424.85 80.9401 420.521 79.8984 415.703 79.8984C410.82 79.8984 406.458 80.9401 402.617 83.0234C398.776 85.1068 395.651 88.0039 393.242 91.7148C390.833 95.3607 389.336 99.5599 388.75 104.312ZM568.73 159H547.832L546.465 146.988C542.884 151.415 538.424 154.866 533.086 157.34C527.747 159.749 521.823 160.953 515.312 160.953C508.411 160.953 502.259 159.618 496.855 156.949C491.452 154.215 487.188 150.504 484.062 145.816C481.003 141.129 479.473 135.79 479.473 129.801C479.473 123.486 481.133 117.952 484.453 113.199C487.839 108.382 492.428 104.605 498.223 101.871C504.082 99.1367 510.755 97.7695 518.242 97.7695C522.799 97.7695 527.357 98.2904 531.914 99.332C536.536 100.374 540.801 101.839 544.707 103.727V100.602C544.707 96.3047 543.535 92.5938 541.191 89.4688C538.848 86.3438 535.69 83.9349 531.719 82.2422C527.747 80.4844 523.288 79.6055 518.34 79.6055C513.848 79.6055 509.355 80.3867 504.863 81.9492C500.371 83.4466 496.172 85.6927 492.266 88.6875L485.43 69.8398C491.68 66.3893 498.06 63.7852 504.57 62.0273C511.146 60.2695 517.559 59.3906 523.809 59.3906C532.988 59.3906 540.931 61.2135 547.637 64.8594C554.342 68.4401 559.518 73.5833 563.164 80.2891C566.875 86.9297 568.73 94.7747 568.73 103.824V159ZM520.293 141.617C524.525 141.617 528.431 140.738 532.012 138.98C535.658 137.223 538.62 134.781 540.898 131.656C543.242 128.466 544.479 124.82 544.609 120.719V119.645C541.549 117.431 538.099 115.738 534.258 114.566C530.417 113.329 526.543 112.711 522.637 112.711C516.647 112.711 511.732 114.078 507.891 116.812C504.049 119.482 502.129 122.997 502.129 127.359C502.129 130.029 502.91 132.47 504.473 134.684C506.035 136.832 508.184 138.525 510.918 139.762C513.717 140.999 516.842 141.617 520.293 141.617ZM654.18 156.461C647.018 159.456 640.085 160.953 633.379 160.953C626.543 160.953 620.521 159.488 615.312 156.559C610.169 153.629 606.133 149.56 603.203 144.352C600.339 139.078 598.906 132.958 598.906 125.992V82.8281H581.816V61.3438H600.176V36.9297H622.93V61.3438H650.762V82.8281H622.93V121.598C622.93 127.132 624.427 131.493 627.422 134.684C630.482 137.874 634.29 139.469 638.848 139.469C642.884 139.469 646.888 138.232 650.859 135.758L654.18 156.461ZM681.523 35.4648C678.138 35.4648 675.273 34.293 672.93 31.9492C670.651 29.5404 669.512 26.6432 669.512 23.2578C669.512 19.9375 670.651 17.1055 672.93 14.7617C675.273 12.3529 678.138 11.1484 681.523 11.1484C684.974 11.1484 687.871 12.3529 690.215 14.7617C692.559 17.1055 693.73 19.9375 693.73 23.2578C693.73 26.6432 692.559 29.5404 690.215 31.9492C687.871 34.293 684.974 35.4648 681.523 35.4648ZM693.535 159H669.512V61.3438H693.535V159ZM765.215 160.953C755.319 160.953 746.432 158.74 738.555 154.312C730.742 149.885 724.557 143.863 720 136.246C715.508 128.564 713.262 119.872 713.262 110.172C713.262 100.471 715.508 91.8125 720 84.1953C724.557 76.513 730.742 70.4583 738.555 66.0312C746.432 61.6042 755.319 59.3906 765.215 59.3906C775.176 59.3906 784.062 61.6042 791.875 66.0312C799.688 70.4583 805.807 76.513 810.234 84.1953C814.727 91.8125 816.973 100.471 816.973 110.172C816.973 119.872 814.727 128.564 810.234 136.246C805.807 143.863 799.688 149.885 791.875 154.312C784.062 158.74 775.176 160.953 765.215 160.953ZM765.117 139.371C770.326 139.371 774.98 138.102 779.082 135.562C783.184 133.023 786.406 129.54 788.75 125.113C791.159 120.686 792.363 115.673 792.363 110.074C792.363 104.54 791.159 99.5924 788.75 95.2305C786.406 90.8034 783.184 87.3203 779.082 84.7812C774.98 82.2422 770.326 80.9727 765.117 80.9727C759.974 80.9727 755.319 82.2422 751.152 84.7812C747.051 87.3203 743.796 90.8034 741.387 95.2305C739.043 99.5924 737.871 104.54 737.871 110.074C737.871 115.673 739.043 120.686 741.387 125.113C743.796 129.54 747.051 133.023 751.152 135.562C755.319 138.102 759.974 139.371 765.117 139.371ZM931.719 159H907.695V106.363C907.695 98.4857 905.71 92.3008 901.738 87.8086C897.832 83.3164 892.396 81.0703 885.43 81.0703C880.547 81.0703 876.217 82.2096 872.441 84.4883C868.665 86.7018 865.703 89.8919 863.555 94.0586C861.406 98.2253 860.332 103.076 860.332 108.609V159H836.309V61.3438H856.133L856.914 77.0664C860.43 71.3372 865.215 66.9753 871.27 63.9805C877.324 60.9206 884.225 59.3906 891.973 59.3906C904.277 59.3906 913.978 63.1341 921.074 70.6211C928.171 78.1081 931.719 88.362 931.719 101.383V159Z" fill="#E1E1E1"/>
<defs>
<linearGradient id="paint0_linear_602_426" x1="1115" y1="267" x2="1.32736e-06" y2="267" gradientUnits="userSpaceOnUse">
<stop stop-color="#dc2626"/>
<stop offset="1" stop-color="#f97316"/>
</linearGradient>
</defs>
</svg>
