<svg width="1068" height="422" viewBox="0 0 1068 422" fill="none" xmlns="http://www.w3.org/2000/svg">
<path d="M37.2227 354H13.1992V256.344H34.0977L34.9766 274.117C38.362 267.867 42.9193 263.017 48.6484 259.566C54.4427 256.116 61.0833 254.391 68.5703 254.391C70.5234 254.391 72.5091 254.521 74.5273 254.781C76.6107 255.042 78.6615 255.432 80.6797 255.953L77.75 277.633C73.7135 276.461 69.8073 275.875 66.0312 275.875C60.3021 275.875 55.2565 277.21 50.8945 279.879C46.5977 282.548 43.2448 286.259 40.8359 291.012C38.4271 295.699 37.2227 301.168 37.2227 307.418V354ZM183.414 342.672C171.24 351.526 157.926 355.953 143.473 355.953C132.991 355.953 123.583 353.674 115.25 349.117C106.917 344.56 100.309 338.342 95.4258 330.465C90.6081 322.587 88.1992 313.668 88.1992 303.707C88.1992 294.267 90.3802 285.836 94.7422 278.414C99.1693 270.992 105.191 265.133 112.809 260.836C120.491 256.539 129.15 254.391 138.785 254.391C148.811 254.391 157.6 256.767 165.152 261.52C172.77 266.207 178.694 272.75 182.926 281.148C187.158 289.482 189.273 299.182 189.273 310.25V313.375H114.078C115.25 317.802 117.301 321.708 120.23 325.094C123.225 328.479 126.936 331.116 131.363 333.004C135.79 334.892 140.771 335.836 146.305 335.836C156.721 335.836 166.357 332.451 175.211 325.68L183.414 342.672ZM113.102 299.312H167.008C166.487 294.43 164.99 290.165 162.516 286.52C160.107 282.874 156.949 280.042 153.043 278.023C149.202 275.94 144.872 274.898 140.055 274.898C135.172 274.898 130.81 275.94 126.969 278.023C123.128 280.107 120.003 283.004 117.594 286.715C115.185 290.361 113.688 294.56 113.102 299.312ZM220.914 230.465C217.529 230.465 214.664 229.293 212.32 226.949C210.042 224.54 208.902 221.643 208.902 218.258C208.902 214.938 210.042 212.105 212.32 209.762C214.664 207.353 217.529 206.148 220.914 206.148C224.365 206.148 227.262 207.353 229.605 209.762C231.949 212.105 233.121 214.938 233.121 218.258C233.121 221.643 231.949 224.54 229.605 226.949C227.262 229.293 224.365 230.465 220.914 230.465ZM232.926 354H208.902V256.344H232.926V354ZM416.812 354H392.789V303.902C392.789 295.048 390.934 288.18 387.223 283.297C383.577 278.349 378.401 275.875 371.695 275.875C364.924 275.875 359.618 278.349 355.777 283.297C352.001 288.245 350.113 295.113 350.113 303.902V354H326.09V303.902C326.09 295.048 324.234 288.18 320.523 283.297C316.812 278.349 311.637 275.875 304.996 275.875C298.16 275.875 292.822 278.349 288.98 283.297C285.204 288.245 283.316 295.113 283.316 303.902V354H259.293V256.344H278.531L279.41 272.945C282.73 266.891 287.125 262.301 292.594 259.176C298.128 255.986 304.638 254.391 312.125 254.391C319.872 254.391 326.546 256.083 332.145 259.469C337.809 262.789 342.138 267.574 345.133 273.824C348.388 267.444 352.848 262.626 358.512 259.371C364.176 256.051 370.849 254.391 378.531 254.391C390.576 254.391 399.951 258.232 406.656 265.914C413.427 273.531 416.812 284.143 416.812 297.75V354ZM525.309 354H504.41L503.043 341.988C499.462 346.415 495.003 349.866 489.664 352.34C484.326 354.749 478.401 355.953 471.891 355.953C464.99 355.953 458.837 354.618 453.434 351.949C448.03 349.215 443.766 345.504 440.641 340.816C437.581 336.129 436.051 330.79 436.051 324.801C436.051 318.486 437.711 312.952 441.031 308.199C444.417 303.382 449.007 299.605 454.801 296.871C460.66 294.137 467.333 292.77 474.82 292.77C479.378 292.77 483.935 293.29 488.492 294.332C493.115 295.374 497.379 296.839 501.285 298.727V295.602C501.285 291.305 500.113 287.594 497.77 284.469C495.426 281.344 492.268 278.935 488.297 277.242C484.326 275.484 479.866 274.605 474.918 274.605C470.426 274.605 465.934 275.387 461.441 276.949C456.949 278.447 452.75 280.693 448.844 283.688L442.008 264.84C448.258 261.389 454.638 258.785 461.148 257.027C467.724 255.27 474.137 254.391 480.387 254.391C489.566 254.391 497.509 256.214 504.215 259.859C510.921 263.44 516.096 268.583 519.742 275.289C523.453 281.93 525.309 289.775 525.309 298.824V354ZM476.871 336.617C481.103 336.617 485.009 335.738 488.59 333.98C492.236 332.223 495.198 329.781 497.477 326.656C499.82 323.466 501.057 319.82 501.188 315.719V314.645C498.128 312.431 494.677 310.738 490.836 309.566C486.995 308.329 483.121 307.711 479.215 307.711C473.225 307.711 468.31 309.078 464.469 311.812C460.628 314.482 458.707 317.997 458.707 322.359C458.707 325.029 459.488 327.47 461.051 329.684C462.613 331.832 464.762 333.525 467.496 334.762C470.296 335.999 473.421 336.617 476.871 336.617ZM589.859 354.781C580.81 354.781 572.737 352.6 565.641 348.238C558.544 343.876 552.945 337.919 548.844 330.367C544.742 322.75 542.691 314.156 542.691 304.586C542.691 294.951 544.742 286.357 548.844 278.805C552.945 271.253 558.544 265.296 565.641 260.934C572.737 256.572 580.81 254.391 589.859 254.391C596.956 254.391 603.499 255.758 609.488 258.492C615.478 261.227 620.556 265.035 624.723 269.918L625.895 256.344H646.988V351.363C646.988 362.171 644.677 371.578 640.055 379.586C635.497 387.594 629.052 393.779 620.719 398.141C612.385 402.568 602.522 404.781 591.129 404.781C575.309 404.781 561.148 399.736 548.648 389.645L558.512 370.016C567.236 378.805 577.587 383.199 589.566 383.199C596.337 383.199 602.197 381.832 607.145 379.098C612.158 376.428 616.031 372.62 618.766 367.672C621.565 362.789 622.965 357.06 622.965 350.484V341.109C618.798 345.406 613.883 348.759 608.219 351.168C602.555 353.577 596.435 354.781 589.859 354.781ZM595.133 333.395C600.276 333.395 604.931 332.255 609.098 329.977C613.329 327.633 616.682 324.443 619.156 320.406C621.695 316.37 622.965 311.78 622.965 306.637V302.34C622.965 297.197 621.695 292.639 619.156 288.668C616.682 284.697 613.329 281.572 609.098 279.293C604.866 276.949 600.211 275.777 595.133 275.777C589.794 275.777 585.009 277.047 580.777 279.586C576.546 282.06 573.193 285.478 570.719 289.84C568.31 294.202 567.105 299.117 567.105 304.586C567.105 310.055 568.31 314.97 570.719 319.332C573.193 323.694 576.546 327.145 580.777 329.684C585.009 332.158 589.794 333.395 595.133 333.395ZM684.195 230.465C680.81 230.465 677.945 229.293 675.602 226.949C673.323 224.54 672.184 221.643 672.184 218.258C672.184 214.938 673.323 212.105 675.602 209.762C677.945 207.353 680.81 206.148 684.195 206.148C687.646 206.148 690.543 207.353 692.887 209.762C695.23 212.105 696.402 214.938 696.402 218.258C696.402 221.643 695.23 224.54 692.887 226.949C690.543 229.293 687.646 230.465 684.195 230.465ZM696.207 354H672.184V256.344H696.207V354ZM817.984 354H793.961V301.363C793.961 293.486 791.975 287.301 788.004 282.809C784.098 278.316 778.661 276.07 771.695 276.07C766.812 276.07 762.483 277.21 758.707 279.488C754.931 281.702 751.969 284.892 749.82 289.059C747.672 293.225 746.598 298.076 746.598 303.609V354H722.574V256.344H742.398L743.18 272.066C746.695 266.337 751.48 261.975 757.535 258.98C763.59 255.921 770.491 254.391 778.238 254.391C790.543 254.391 800.243 258.134 807.34 265.621C814.436 273.108 817.984 283.362 817.984 296.383V354ZM930.68 342.672C918.505 351.526 905.191 355.953 890.738 355.953C880.257 355.953 870.849 353.674 862.516 349.117C854.182 344.56 847.574 338.342 842.691 330.465C837.874 322.587 835.465 313.668 835.465 303.707C835.465 294.267 837.646 285.836 842.008 278.414C846.435 270.992 852.457 265.133 860.074 260.836C867.757 256.539 876.415 254.391 886.051 254.391C896.077 254.391 904.866 256.767 912.418 261.52C920.035 266.207 925.96 272.75 930.191 281.148C934.423 289.482 936.539 299.182 936.539 310.25V313.375H861.344C862.516 317.802 864.566 321.708 867.496 325.094C870.491 328.479 874.202 331.116 878.629 333.004C883.056 334.892 888.036 335.836 893.57 335.836C903.987 335.836 913.622 332.451 922.477 325.68L930.68 342.672ZM860.367 299.312H914.273C913.753 294.43 912.255 290.165 909.781 286.52C907.372 282.874 904.215 280.042 900.309 278.023C896.467 275.94 892.138 274.898 887.32 274.898C882.438 274.898 878.076 275.94 874.234 278.023C870.393 280.107 867.268 283.004 864.859 286.715C862.451 290.361 860.953 294.56 860.367 299.312ZM1054.8 354H1033.61L1032.34 340.328C1028.11 345.211 1022.96 349.052 1016.91 351.852C1010.86 354.586 1004.25 355.953 997.086 355.953C987.971 355.953 979.801 353.74 972.574 349.312C965.348 344.885 959.651 338.863 955.484 331.246C951.383 323.564 949.332 314.872 949.332 305.172C949.332 295.471 951.383 286.812 955.484 279.195C959.651 271.513 965.348 265.458 972.574 261.031C979.801 256.604 987.971 254.391 997.086 254.391C1003.86 254.391 1010.11 255.595 1015.84 258.004C1021.57 260.413 1026.55 263.798 1030.78 268.16V207.516H1054.8V354ZM1002.46 334.371C1007.67 334.371 1012.42 333.199 1016.71 330.855C1021.01 328.447 1024.43 325.159 1026.97 320.992C1029.51 316.826 1030.78 312.073 1030.78 306.734V303.316C1030.78 298.043 1029.51 293.355 1026.97 289.254C1024.43 285.087 1021.01 281.832 1016.71 279.488C1012.42 277.079 1007.67 275.875 1002.46 275.875C996.988 275.875 992.105 277.177 987.809 279.781C983.512 282.32 980.126 285.803 977.652 290.23C975.178 294.592 973.941 299.54 973.941 305.074C973.941 310.673 975.178 315.686 977.652 320.113C980.126 324.54 983.512 328.023 987.809 330.562C992.105 333.102 996.988 334.371 1002.46 334.371Z" fill="url(#paint0_linear_603_430)"/>
<path d="M246.902 157.961C242.15 163.365 236.388 167.564 229.617 170.559C222.846 173.488 215.457 174.953 207.449 174.953C197.553 174.953 188.667 172.74 180.789 168.312C172.977 163.885 166.792 157.863 162.234 150.246C157.742 142.564 155.496 133.872 155.496 124.172C155.496 114.471 157.742 105.812 162.234 98.1953C166.792 90.513 172.977 84.4583 180.789 80.0312C188.667 75.6042 197.553 73.3906 207.449 73.3906C215.392 73.3906 222.716 74.8555 229.422 77.7852C236.193 80.7148 241.954 84.849 246.707 90.1875L232.645 105.129C229.715 101.939 226.167 99.4648 222 97.707C217.898 95.9492 213.536 95.0703 208.914 95.0703C203.315 95.0703 198.335 96.3073 193.973 98.7812C189.676 101.255 186.29 104.673 183.816 109.035C181.408 113.397 180.203 118.41 180.203 124.074C180.203 129.738 181.408 134.784 183.816 139.211C186.29 143.573 189.676 147.023 193.973 149.562C198.335 152.036 203.315 153.273 208.914 153.273C213.536 153.273 217.931 152.395 222.098 150.637C226.264 148.814 229.78 146.34 232.645 143.215L246.902 157.961ZM289.871 173H265.848V75.3438H286.746L287.625 93.1172C291.01 86.8672 295.568 82.0169 301.297 78.5664C307.091 75.1159 313.732 73.3906 321.219 73.3906C323.172 73.3906 325.158 73.5208 327.176 73.7812C329.259 74.0417 331.31 74.4323 333.328 74.9531L330.398 96.6328C326.362 95.4609 322.456 94.875 318.68 94.875C312.951 94.875 307.905 96.2096 303.543 98.8789C299.246 101.548 295.893 105.259 293.484 110.012C291.076 114.699 289.871 120.168 289.871 126.418V173ZM436.062 161.672C423.888 170.526 410.574 174.953 396.121 174.953C385.639 174.953 376.232 172.674 367.898 168.117C359.565 163.56 352.957 157.342 348.074 149.465C343.257 141.587 340.848 132.668 340.848 122.707C340.848 113.267 343.029 104.836 347.391 97.4141C351.818 89.9922 357.84 84.1328 365.457 79.8359C373.139 75.5391 381.798 73.3906 391.434 73.3906C401.46 73.3906 410.249 75.7669 417.801 80.5195C425.418 85.207 431.342 91.75 435.574 100.148C439.806 108.482 441.922 118.182 441.922 129.25V132.375H366.727C367.898 136.802 369.949 140.708 372.879 144.094C375.874 147.479 379.585 150.116 384.012 152.004C388.439 153.892 393.419 154.836 398.953 154.836C409.37 154.836 419.005 151.451 427.859 144.68L436.062 161.672ZM365.75 118.312H419.656C419.135 113.43 417.638 109.165 415.164 105.52C412.755 101.874 409.598 99.0417 405.691 97.0234C401.85 94.9401 397.521 93.8984 392.703 93.8984C387.82 93.8984 383.458 94.9401 379.617 97.0234C375.776 99.1068 372.651 102.004 370.242 105.715C367.833 109.361 366.336 113.56 365.75 118.312ZM545.73 173H524.832L523.465 160.988C519.884 165.415 515.424 168.866 510.086 171.34C504.747 173.749 498.823 174.953 492.312 174.953C485.411 174.953 479.259 173.618 473.855 170.949C468.452 168.215 464.188 164.504 461.062 159.816C458.003 155.129 456.473 149.79 456.473 143.801C456.473 137.486 458.133 131.952 461.453 127.199C464.839 122.382 469.428 118.605 475.223 115.871C481.082 113.137 487.755 111.77 495.242 111.77C499.799 111.77 504.357 112.29 508.914 113.332C513.536 114.374 517.801 115.839 521.707 117.727V114.602C521.707 110.305 520.535 106.594 518.191 103.469C515.848 100.344 512.69 97.9349 508.719 96.2422C504.747 94.4844 500.288 93.6055 495.34 93.6055C490.848 93.6055 486.355 94.3867 481.863 95.9492C477.371 97.4466 473.172 99.6927 469.266 102.688L462.43 83.8398C468.68 80.3893 475.06 77.7852 481.57 76.0273C488.146 74.2695 494.559 73.3906 500.809 73.3906C509.988 73.3906 517.931 75.2135 524.637 78.8594C531.342 82.4401 536.518 87.5833 540.164 94.2891C543.875 100.93 545.73 108.775 545.73 117.824V173ZM497.293 155.617C501.525 155.617 505.431 154.738 509.012 152.98C512.658 151.223 515.62 148.781 517.898 145.656C520.242 142.466 521.479 138.82 521.609 134.719V133.645C518.549 131.431 515.099 129.738 511.258 128.566C507.417 127.329 503.543 126.711 499.637 126.711C493.647 126.711 488.732 128.078 484.891 130.812C481.049 133.482 479.129 136.997 479.129 141.359C479.129 144.029 479.91 146.47 481.473 148.684C483.035 150.832 485.184 152.525 487.918 153.762C490.717 154.999 493.842 155.617 497.293 155.617ZM631.18 170.461C624.018 173.456 617.085 174.953 610.379 174.953C603.543 174.953 597.521 173.488 592.312 170.559C587.169 167.629 583.133 163.56 580.203 158.352C577.339 153.078 575.906 146.958 575.906 139.992V96.8281H558.816V75.3438H577.176V50.9297H599.93V75.3438H627.762V96.8281H599.93V135.598C599.93 141.132 601.427 145.493 604.422 148.684C607.482 151.874 611.29 153.469 615.848 153.469C619.884 153.469 623.888 152.232 627.859 149.758L631.18 170.461ZM658.523 49.4648C655.138 49.4648 652.273 48.293 649.93 45.9492C647.651 43.5404 646.512 40.6432 646.512 37.2578C646.512 33.9375 647.651 31.1055 649.93 28.7617C652.273 26.3529 655.138 25.1484 658.523 25.1484C661.974 25.1484 664.871 26.3529 667.215 28.7617C669.559 31.1055 670.73 33.9375 670.73 37.2578C670.73 40.6432 669.559 43.5404 667.215 45.9492C664.871 48.293 661.974 49.4648 658.523 49.4648ZM670.535 173H646.512V75.3438H670.535V173ZM742.215 174.953C732.319 174.953 723.432 172.74 715.555 168.312C707.742 163.885 701.557 157.863 697 150.246C692.508 142.564 690.262 133.872 690.262 124.172C690.262 114.471 692.508 105.812 697 98.1953C701.557 90.513 707.742 84.4583 715.555 80.0312C723.432 75.6042 732.319 73.3906 742.215 73.3906C752.176 73.3906 761.062 75.6042 768.875 80.0312C776.688 84.4583 782.807 90.513 787.234 98.1953C791.727 105.812 793.973 114.471 793.973 124.172C793.973 133.872 791.727 142.564 787.234 150.246C782.807 157.863 776.688 163.885 768.875 168.312C761.062 172.74 752.176 174.953 742.215 174.953ZM742.117 153.371C747.326 153.371 751.98 152.102 756.082 149.562C760.184 147.023 763.406 143.54 765.75 139.113C768.159 134.686 769.363 129.673 769.363 124.074C769.363 118.54 768.159 113.592 765.75 109.23C763.406 104.803 760.184 101.32 756.082 98.7812C751.98 96.2422 747.326 94.9727 742.117 94.9727C736.974 94.9727 732.319 96.2422 728.152 98.7812C724.051 101.32 720.796 104.803 718.387 109.23C716.043 113.592 714.871 118.54 714.871 124.074C714.871 129.673 716.043 134.686 718.387 139.113C720.796 143.54 724.051 147.023 728.152 149.562C732.319 152.102 736.974 153.371 742.117 153.371ZM908.719 173H884.695V120.363C884.695 112.486 882.71 106.301 878.738 101.809C874.832 97.3164 869.396 95.0703 862.43 95.0703C857.547 95.0703 853.217 96.2096 849.441 98.4883C845.665 100.702 842.703 103.892 840.555 108.059C838.406 112.225 837.332 117.076 837.332 122.609V173H813.309V75.3438H833.133L833.914 91.0664C837.43 85.3372 842.215 80.9753 848.27 77.9805C854.324 74.9206 861.225 73.3906 868.973 73.3906C881.277 73.3906 890.978 77.1341 898.074 84.6211C905.171 92.1081 908.719 102.362 908.719 115.383V173Z" fill="#E1E1E1"/>
<defs>
<linearGradient id="paint0_linear_603_430" x1="1068" y1="281" x2="1.27141e-06" y2="281" gradientUnits="userSpaceOnUse">
<stop stop-color="#D24931"/>
<stop offset="1" stop-color="#E16A33"/>
</linearGradient>
</defs>
</svg>
